HIERARCHY
ROOT pelvis
{
	OFFSET 0.000000 0.000000 0.000000
	CHANNELS 6 Xposition Yposition Zposition Zrotation Xrotation Yrotation
	JOINT lfemur
	{
		OFFSET 11.446000 0.000000 0.000000
		CHANNELS 3 Zrotation Xrotation Yrotation
		JOINT ltibia
		{
			OFFSET 0.000000 -42.030400 0.000000
			CHANNELS 3 Zrotation Xrotation Yrotation
			JOINT lfoot
			{
				OFFSET 0.000000 -39.930200 0.000000
				CHANNELS 3 Zrotation Xrotation Yrotation
				JOINT ltoes
				{
					OFFSET 0.000000 0.000000 11.775800
					CHANNELS 3 Zrotation Xrotation Yrotation
					End Site
					{
					    OFFSET 0.000000 0.000000 5.000000
					}
				}
			}
		}
	}
	JOINT rfemur
	{
		OFFSET -11.446000 0.000000 0.000000
		CHANNELS 3 Zrotation Xrotation Yrotation
		JOINT rtibia
		{
			OFFSET 0.000000 -42.030400 0.000000
			CHANNELS 3 Zrotation Xrotation Yrotation
			JOINT rfoot
			{
				OFFSET 0.000000 -39.930200 0.000000
				CHANNELS 3 Zrotation Xrotation Yrotation
				JOINT rtoes
				{
					OFFSET 0.000000 0.000000 11.775800
					CHANNELS 3 Zrotation Xrotation Yrotation
					End Site
					{
					    OFFSET 0.000000 0.000000 5.000000
					}
				}
			}
		}
	}
	JOINT thorax
	{
		OFFSET 0.000000 11.255600 -5.000000
		CHANNELS 3 Zrotation Xrotation Yrotation
		JOINT head
		{
			OFFSET 0.000000 43.799300 0.000000
			CHANNELS 3 Zrotation Xrotation Yrotation
			End Site
			{
			    OFFSET 0.000000 5.000000 0.000000
			}
		}
		JOINT lclavicle
		{
			OFFSET 0.000000 39.863000 0.000000
			CHANNELS 3 Zrotation Xrotation Yrotation
			JOINT lhumerus
			{
				OFFSET 17.380600 4.958300 0.000000
				CHANNELS 3 Zrotation Xrotation Yrotation
				JOINT lradius
				{
					OFFSET 0.000000 -27.561300 0.000000
					CHANNELS 3 Zrotation Xrotation Yrotation
					JOINT lhand
					{
						OFFSET 0.000000 -26.933000 0.000000
						CHANNELS 3 Zrotation Xrotation Yrotation
						End Site
						{
						    OFFSET 0.000000 -5.000000 0.000000
						}
					}
				}
			}
		}
		JOINT rclavicle
		{
			OFFSET 0.000000 39.863000 0.000000
			CHANNELS 3 Zrotation Xrotation Yrotation
			JOINT rhumerus
			{
				OFFSET -17.380600 4.958300 0.000000
				CHANNELS 3 Zrotation Xrotation Yrotation
				JOINT rradius
				{
					OFFSET 0.000000 -27.561300 0.000000
					CHANNELS 3 Zrotation Xrotation Yrotation
					JOINT rhand
					{
						OFFSET 0.000000 -26.933000 0.000000
						CHANNELS 3 Zrotation Xrotation Yrotation
						End Site
						{
						    OFFSET 0.000000 -5.000000 0.000000
						}
					}
				}
			}
		}
	}
}
MOTION
Frames: 13
Frame Time: 0.008342
59.293900 87.796900 4.760200 -0.467276 -1.378122 -89.563821 -5.641307 2.819435 -8.651036 -0.000000 9.240240 -0.000000 0.000000 3.555270 6.177856 0.000000 -1.301336 -0.000000 -1.803037 2.742629 -3.741876 -0.000000 9.274983 -0.000000 0.000000 3.290364 2.906258 0.000000 -29.528157 0.000000 -4.531867 0.132349 0.213401 15.628959 24.623904 -0.608822 0.394562 0.000000 3.487028 83.769402 0.553653 62.001030 -0.000001 -12.781487 -55.037055 5.615823 0.703335 0.000000 0.095169 -0.000000 -0.923419 -78.312883 9.001808 -58.564139 0.000000 -20.003803 36.764996 -3.936911 -2.063559 -0.000000
59.291700 87.793600 4.752400 -0.475906 -1.381233 -89.556452 -5.638376 2.830551 -8.625235 0.000000 9.236131 -0.000000 -0.000000 3.523541 6.156061 0.000000 -1.301682 -0.000000 -1.792531 2.748974 -3.691834 -0.000000 9.276495 0.000000 0.000000 3.262773 2.860635 0.000000 -29.527798 0.000000 -4.547519 0.143945 0.207558 15.646355 24.636287 -0.589535 0.469632 -0.000000 3.531537 83.641881 0.487220 62.085857 -0.000000 -12.806394 -55.155542 5.630933 0.721572 0.000000 0.133438 -0.000000 -0.934718 -78.356085 8.980916 -58.621133 0.000000 -19.969767 36.707936 -3.798525 -2.110204 -0.000000
59.284100 87.792700 4.735700 -0.468226 -1.370968 -89.577780 -5.616747 2.843706 -8.610767 0.000000 9.200918 -0.000000 -0.000000 3.503068 6.153399 -0.000000 -1.302785 0.000000 -1.773209 2.721528 -3.689529 -0.000000 9.319831 -0.000000 -0.000000 3.257897 2.830402 -0.000000 -29.528157 -0.000000 -4.536401 0.106276 0.231925 15.644609 24.663646 -0.606920 0.409234 0.000000 3.553416 83.667533 0.489506 61.762180 0.000000 -12.898223 -54.860654 5.586698 0.818060 0.000000 0.122813 0.000000 -0.948072 -78.310186 8.984997 -58.656865 0.000000 -19.998329 36.940994 -3.711300 -2.139901 -0.000000
59.282100 87.790800 4.728700 -0.461758 -1.366552 -89.579710 -5.613338 2.837260 -8.694937 -0.000000 9.209723 -0.000000 -0.000000 3.484879 6.227628 0.000000 -1.304036 -0.000000 -1.763992 2.729025 -3.672279 -0.000000 9.288652 -0.000000 0.000000 3.255916 2.844268 -0.000000 -29.528027 -0.000000 -4.528046 0.100640 0.242992 15.609657 24.745218 -0.492758 0.413816 -0.000000 3.530372 83.597626 0.539045 61.709637 0.000000 -12.969000 -54.797285 5.510310 0.700008 -0.000000 0.106022 -0.000000 -0.987721 -78.302448 8.906472 -58.714905 -0.000001 -19.941416 36.794698 -3.785218 -2.115444 0.000000
59.283400 87.788000 4.723200 -0.460583 -1.371016 -89.598382 -5.613055 2.823866 -8.590526 -0.000000 9.236753 -0.000000 0.000000 3.482522 6.157542 -0.000000 -1.301309 -0.000000 -1.764308 2.690030 -3.623681 0.000000 9.352073 -0.000000 0.000000 3.227821 2.830198 -0.000000 -29.528574 -0.000000 -4.519904 0.068020 0.272527 15.629935 24.702174 -0.608441 0.335701 -0.000000 3.441284 83.659059 0.665633 61.486106 0.000001 -13.002227 -54.575809 5.481793 0.890782 -0.000000 0.056453 -0.000000 -0.952533 -78.232846 8.970140 -58.708913 0.000000 -19.988855 36.840645 -3.782838 -2.116223 -0.000000
59.276900 87.790800 4.716900 -0.470126 -1.357673 -89.590423 -5.596924 2.841925 -8.621268 -0.000000 9.220431 -0.000000 0.000000 3.468426 6.220523 -0.000000 -1.300337 -0.000000 -1.759487 2.725216 -3.726030 0.000000 9.323672 -0.000000 -0.000000 3.230686 2.983662 0.000000 -29.528167 -0.000000 -4.508982 0.059075 0.273457 15.661660 24.683349 -0.692945 0.323198 0.000000 3.428698 83.682806 0.622022 61.728633 0.000000 -12.932372 -54.727228 5.482531 0.853561 -0.000000 0.069621 -0.000000 -0.970457 -78.241311 8.961112 -58.682449 -0.000000 -19.988411 36.839026 -3.811916 -2.106072 -0.000000
59.278600 87.792900 4.710300 -0.469274 -1.396076 -89.580939 -5.630184 2.821149 -8.571420 -0.000000 9.259906 -0.000000 0.000000 3.526229 6.152503 -0.000000 -1.302718 -0.000000 -1.785434 2.739213 -3.698366 -0.000000 9.291763 0.000000 0.000000 3.212860 2.881409 0.000000 -29.527563 0.000000 -4.556954 0.048129 0.272603 15.654683 24.707244 -0.672656 0.318833 -0.000000 3.402880 83.690018 0.631661 61.838292 -0.000000 -12.882630 -54.791018 5.525398 0.805944 0.000000 0.104944 -0.000000 -0.950288 -78.244014 9.030475 -58.600222 -0.000000 -20.035101 36.778194 -3.870283 -2.085844 -0.000000
59.281900 87.787400 4.704600 -0.453223 -1.388468 -89.589388 -5.605858 2.786124 -8.465835 -0.000000 9.281630 -0.000000 0.000000 3.499776 6.041497 -0.000000 -1.301146 0.000000 -1.768647 2.683340 -3.656719 -0.000000 9.354597 -0.000000 0.000000 3.195214 2.869787 -0.000000 -29.527969 0.000000 -4.540629 0.025971 0.280470 15.635451 24.713161 -0.653770 0.288242 -0.000000 3.417386 83.709580 0.607817 61.824658 -0.000000 -12.862316 -54.630318 5.478488 0.842529 -0.000000 0.071188 -0.000000 -0.983970 -78.211951 8.991118 -58.655391 -0.000000 -20.017027 36.880782 -3.807593 -2.106951 -0.000000
59.279500 87.787700 4.696000 -0.455028 -1.397547 -89.595496 -5.614439 2.824582 -8.624137 -0.000000 9.237227 0.000000 -0.000000 3.495944 6.151834 0.000000 -1.304155 -0.000000 -1.781444 2.654905 -3.726787 -0.000000 9.421968 -0.000000 0.000000 3.177267 2.928264 0.000000 -29.528167 -0.000000 -4.565781 -0.001285 0.270199 15.658960 24.731142 -0.685422 0.328532 -0.000000 3.457950 83.613371 0.578075 61.907704 -0.000000 -12.935610 -54.461537 5.479304 0.921058 0.000000 0.078958 0.000000 -0.964603 -78.184693 8.985738 -58.624276 -0.000001 -20.016010 36.947765 -4.029797 -2.030814 0.000000
59.273500 87.787600 4.683700 -0.465172 -1.396811 -89.609187 -5.598998 2.840771 -8.572094 -0.000000 9.220340 -0.000000 0.000000 3.508434 6.095884 0.000000 -1.304813 -0.000000 -1.774991 2.667009 -3.695922 -0.000000 9.432655 0.000000 0.000000 3.199135 2.913069 -0.000000 -29.527928 -0.000000 -4.575260 -0.009224 0.267776 15.661071 24.754194 -0.641924 0.297623 0.000000 3.425191 83.646577 0.674115 61.763410 -0.000000 -12.958827 -54.399013 5.472793 0.955200 -0.000000 0.110705 -0.000000 -0.858374 -78.237644 9.089490 -58.648715 0.000001 -19.962407 36.775129 -3.983670 -2.046720 0.000000
59.284900 87.788300 4.673700 -0.453408 -1.402311 -89.625307 -5.604319 2.786041 -8.401275 -0.000000 9.280571 -0.000000 -0.000000 3.498633 6.032739 0.000000 -1.303946 -0.000000 -1.769112 2.636597 -3.631864 0.000000 9.439194 -0.000000 -0.000000 3.158291 2.849754 -0.000000 -29.528277 0.000000 -4.591124 -0.056535 0.302026 15.661763 24.785919 -0.624010 0.271112 -0.000000 3.427797 83.672718 0.664271 61.764817 -0.000000 -12.963301 -54.372399 5.435653 0.856411 -0.000000 0.201603 -0.000000 -0.870615 -78.347908 9.133227 -58.550655 -0.000000 -19.942160 36.729059 -3.854345 -2.090452 -0.000000
59.280300 87.786800 4.666900 -0.469409 -1.420268 -89.653525 -5.612677 2.843023 -8.410334 -0.000000 9.210025 -0.000000 0.000000 3.498946 6.039700 -0.000000 -1.304738 -0.000000 -1.783667 2.658515 -3.600766 -0.000000 9.430407 -0.000000 -0.000000 3.185613 2.828278 0.000000 -29.528154 -0.000000 -4.604208 -0.065735 0.295255 15.658571 24.759061 -0.696774 0.233992 -0.000000 3.320816 83.708158 0.846545 61.846107 0.000001 -12.948285 -54.384674 5.402573 0.828463 -0.000000 0.210309 -0.000000 -0.768168 -78.339231 9.257471 -58.541599 -0.000000 -20.002567 36.751766 -3.765682 -2.120014 0.000000
59.280400 87.789300 4.652200 -0.477127 -1.410721 -89.639994 -5.585035 2.850563 -8.371627 0.000000 9.217180 -0.000000 0.000000 3.506331 5.982576 -0.000000 -1.303095 -0.000000 -1.770054 2.657888 -3.659066 -0.000000 9.443351 0.000000 0.000000 3.136335 2.923853 -0.000000 -29.527672 -0.000000 -4.612471 -0.057196 0.281018 15.677405 24.733480 -0.708753 0.258155 0.000000 3.340808 83.646227 0.841764 61.804191 -0.000001 -13.000473 -54.146964 5.397294 0.843260 -0.000000 0.256453 -0.000000 -0.769693 -78.360658 9.253671 -58.500886 0.000000 -19.982354 36.915312 -3.947123 -2.058705 -0.000000
